<?xml version="1.0" encoding="utf-8"?>
<!-- Generator: Adobe Illustrator 23.0.3, SVG Export Plug-In . SVG Version: 6.00 Build 0)  -->
<svg version="1.1" id="Layer_1" xmlns="http://www.w3.org/2000/svg" xmlns:xlink="http://www.w3.org/1999/xlink" x="0px" y="0px"
	 viewBox="0 0 24 24" style="enable-background:new 0 0 24 24;" xml:space="preserve">
<style type="text/css">
	.st0{fill:none;}
	.st1{fill:#34A853;}
	.st2{fill:#EA4335;}
	.st3{fill:#FBBC04;}
	.st4{fill:#4285F4;}
</style>
<path class="st0" d="M0,0h24v24H0V0z"/>
<path class="st1" d="M10,2v2c3.3,0,6,2.7,6,6h2C18,5.6,14.4,2,10,2z"/>
<path class="st2" d="M10,4V2c-4.4,0-8,3.6-8,8h2C4,6.7,6.7,4,10,4z"/>
<path class="st3" d="M4,10H2c0,4.4,3.6,8,8,8v-2C6.7,16,4,13.3,4,10z"/>
<path class="st4" d="M22,20.6l-5.7-5.7c1.1-1.4,1.7-3.1,1.7-4.9h-2c0,3.3-2.7,6-6,6v2c1.9,0,3.5-0.6,4.9-1.7l5.7,5.7L22,20.6z"/>
</svg>
