<?xml version="1.0" encoding="utf-8"?>
<!-- Generator: Adobe Illustrator 23.0.3, SVG Export Plug-In . SVG Version: 6.00 Build 0)  -->
<svg version="1.1" id="Layer_1" focusable="false" xmlns="http://www.w3.org/2000/svg" xmlns:xlink="http://www.w3.org/1999/xlink"
	 x="0px" y="0px" viewBox="0 0 24 24" style="enable-background:new 0 0 24 24;" xml:space="preserve">
<path d="M14,13l4,5H6l4-4l1.8,1.8L14,13z M8,10c1.1,0,2-0.9,2-2S9.1,6,8,6S6,6.9,6,8S6.9,10,8,10z M22,5v14c0,1.7-1.3,3-3,3H5
	c-1.6,0-3-1.4-3-3V5c0-1.6,1.4-3,3-3h14C20.6,2,22,3.4,22,5z M20,5c0-0.6-0.4-1-1-1H5C4.4,4,4,4.4,4,5v14c0,0.6,0.4,1,1,1h7v0h7
	c0.6,0,1-0.4,1-1L20,5L20,5z"/>
</svg>
