<?xml version="1.0" encoding="utf-8"?>
<!-- Generator: Adobe Illustrator 23.0.3, SVG Export Plug-In . SVG Version: 6.00 Build 0)  -->
<svg version="1.1" id="Layer_1" focusable="false" xmlns="http://www.w3.org/2000/svg" xmlns:xlink="http://www.w3.org/1999/xlink"
	 x="0px" y="0px" viewBox="0 0 24 24" style="enable-background:new 0 0 24 24;" xml:space="preserve">
<style type="text/css">
	.st0{fill:none;}
</style>
<path class="st0" d="M0,0h24v24H0V0z"/>
<path d="M20.1,15L20.1,15L20,19c0,0.4-0.3,0.8-0.7,0.9L12.4,13l2.2-2.2c-0.4-0.6-0.7-1.2-1-1.8L4,18.6V5c0-0.6,0.4-1,1-1h7.6
	c0.1-0.7,0.3-1.4,0.6-2H5C3.4,2,2,3.3,2,5v14c0,1.6,1.4,3,3,3h14c1.7,0,3-1.3,3-3v-6.2C21.4,13.6,20.8,14.3,20.1,15z M12,20H5.4
	l5.6-5.6l5.6,5.6L12,20L12,20z M19,0c-3,0-5,2-5,5c0,3.8,5,9,5,9s5-5.2,5-9C24,2,22,0,19,0z M19,6.7c-1,0-1.8-0.8-1.8-1.8
	S18,3.2,19,3.2S20.8,4,20.8,5S20,6.7,19,6.7z"/>
</svg>
