<?xml version="1.0" encoding="utf-8"?>
<!-- Generator: Adobe Illustrator 23.0.3, SVG Export Plug-In . SVG Version: 6.00 Build 0)  -->
<svg version="1.1" id="Layer_1" focusable="false" xmlns="http://www.w3.org/2000/svg" xmlns:xlink="http://www.w3.org/1999/xlink"
	 x="0px" y="0px" viewBox="0 0 24 24" style="enable-background:new 0 0 24 24;" xml:space="preserve">
<path d="M12,11h6v2h-6V11z M6,17h12v-2H6V17z M6,13h4V7H6V13z M22,5.8v12.4c0,1.5-1.3,2.8-3,2.8H5c-1.6,0-3-1.3-3-2.8V5.8
	C2,4.3,3.4,3,5,3h14C20.6,3,22,4.3,22,5.8z M20,12V5.8C20,5.4,19.5,5,19,5H5C4.5,5,4,5.4,4,5.8v12.4C4,18.6,4.5,19,5,19h14
	c0.5,0,1-0.4,1-0.8L20,12L20,12z M12,9h6V7h-6V9z"/>
</svg>
