<?xml version="1.0" encoding="utf-8"?>
<!-- Generator: Adobe Illustrator 23.0.3, SVG Export Plug-In . SVG Version: 6.00 Build 0)  -->
<svg version="1.1" id="Layer_1" focusable="false" xmlns="http://www.w3.org/2000/svg" xmlns:xlink="http://www.w3.org/1999/xlink"
	 x="0px" y="0px" viewBox="0 0 24 24" style="enable-background:new 0 0 24 24;" xml:space="preserve">
<path d="M10,16.5l6-4.5l-6-4.5V16.5z M5,20h14c0.6,0,1-0.4,1-1V5c0-0.6-0.4-1-1-1H5C4.4,4,4,4.4,4,5v14C4,19.6,4.4,20,5,20z
	 M19.5,22H5c-1.7,0-3-1.3-3-3V4.4C2,3.1,3.1,2,4.4,2l0,0h15.2C20.9,2,22,3.1,22,4.4v15.1C22,20.9,20.9,22,19.5,22z"/>
</svg>
